PathFileType	4	(X/Y/Z)	D:\Share\Shared_Data\Ergonomics\Sit To Stand Pertubation\S2\Perturbed.trc
DataRate	CameraRate	NumFrames	NumMarkers	Units	OrigDataRate	OrigDataStartFrame	OrigNumFrames	
100	100	15	18	m	100	11461	261
Frame#	Time	R_Toe			R_ASIS			R_Pelvis			V_Sacral			L_Pelvis			L_ASIS			Clavical			R_Acromium			L_Acromium			Sternum			Torso			R_Thigh_Med			R_Thigh_Lat			R_Thigh			R_Shank_Med			R_Shank_Lat			R_Shank			R_Heel			
		X1	Y1	Z1	X2	Y2	Z2	X3	Y3	Z3	X4	Y4	Z4	X5	Y5	Z5	X6	Y6	Z6	X7	Y7	Z7	X8	Y8	Z8	X9	Y9	Z9	X10	Y10	Z10	X11	Y11	Z11	X12	Y12	Z12	X13	Y13	Z13	X14	Y14	Z14	X15	Y15	Z15	X16	Y16	Z16	X17	Y17	Z17	X18	Y18	Z18	

11461	114.6	0.43426596	0.066033775	0.14521864	-0.077781059	0.63350507	0.11597522	-0.15742734	0.64155591	0.16286882	-0.29040182	0.58149353	0.01218486	-0.19778304	0.63375024	-0.17925623	-0.10386076	0.64506995	-0.14850287	-0.067473648	1.0378815	-0.0091402702	-0.16395657	1.0560851	0.19512006	-0.16774924	1.0607394	-0.19639189	-0.024980776	0.87847107	-0.0086072483	-0.053914276	0.99629681	-0.12380476	0.31537183	0.51034689	0.12133433	0.28228476	0.51719727	0.22414362	0.12373957	0.62339661	0.16902058	0.29848468	0.11205705	0.11080228	0.2777562	0.10103798	0.20349052	0.288478	0.36435785	0.23851271	0.19666554	0.061800591	0.15081708
11462	114.61	0.43425406	0.066056198	0.1451992	-0.078070854	0.63361084	0.11607013	-0.15764423	0.64164459	0.16309471	-0.29069382	0.58143323	0.012244274	-0.19804944	0.63385901	-0.17921173	-0.1038955	0.64529462	-0.14843488	-0.066170547	1.0376781	-0.0091294279	-0.16259355	1.0560463	0.19515675	-0.16649565	1.0607715	-0.19632507	-0.024147627	0.87812939	-0.0086409588	-0.052797188	0.99602783	-0.12383382	0.31502084	0.51034152	0.12118906	0.28200677	0.51723804	0.22400331	0.12354557	0.6234859	0.16900291	0.29840793	0.11203465	0.11080679	0.27770892	0.10102981	0.20340939	0.28823141	0.36442636	0.23843881	0.19665355	0.061790863	0.15082861
11463	114.62	0.4342421	0.066080269	0.14517931	-0.078330093	0.6337243	0.1161338	-0.15781783	0.64175006	0.16327078	-0.29098584	0.58137384	0.012298028	-0.19831458	0.6339668	-0.17914938	-0.1039072	0.64555969	-0.14834245	-0.064717453	1.0374248	-0.0091118326	-0.16107066	1.0559962	0.19520169	-0.16508192	1.0607968	-0.19625252	-0.023226912	0.87772314	-0.0086802282	-0.051552284	0.99571106	-0.12385533	0.31465845	0.51034247	0.12105178	0.28171921	0.51727936	0.22387202	0.12333751	0.62357568	0.16899974	0.29833627	0.11201226	0.11080733	0.27765952	0.10102632	0.20333325	0.2879783	0.36449429	0.23837256	0.19664172	0.061781059	0.15083774
11464	114.63	0.4342309	0.06610553	0.14516502	-0.078559204	0.63383667	0.11616955	-0.15794934	0.64186725	0.16339139	-0.29127921	0.58131738	0.012344914	-0.19857593	0.63407031	-0.17905649	-0.10390392	0.64586285	-0.14823293	-0.063106411	1.037119	-0.0090860472	-0.15937958	1.0559354	0.19525618	-0.16349731	1.0608069	-0.19616791	-0.022209473	0.87725012	-0.0087221642	-0.050171249	0.99534515	-0.12386673	0.31428552	0.51035065	0.1209283	0.28142197	0.51732104	0.22375624	0.12311411	0.62366431	0.169015	0.29826965	0.11199042	0.11080463	0.27760849	0.10102579	0.20326472	0.28771768	0.36456018	0.23831447	0.19663037	0.061771332	0.15084329
11465	114.64	0.43422101	0.066131187	0.1451615	-0.078764435	0.6339425	0.11618505	-0.1580459	0.64199298	0.16346149	-0.29157852	0.58126471	0.01238692	-0.19883453	0.63416699	-0.17892517	-0.10389744	0.64620398	-0.14811168	-0.061328808	1.0367572	-0.0090495195	-0.15750931	1.0558635	0.19532167	-0.16172931	1.0607946	-0.19606555	-0.021086834	0.8767077	-0.0087617741	-0.048644985	0.99492676	-0.12386633	0.31390228	0.51036572	0.12082418	0.28111285	0.51736194	0.22366197	0.12287381	0.62374945	0.16905119	0.29820819	0.11196988	0.11079963	0.27755679	0.1010265	0.2032075	0.28744815	0.36462247	0.238265	0.19661977	0.061761459	0.15084483
11466	114.65	0.43421237	0.066156761	0.14516925	-0.07895369	0.63403949	0.11618869	-0.15811664	0.64212494	0.16349098	-0.29188776	0.58121606	0.012426072	-0.19909409	0.63425537	-0.17875079	-0.10390232	0.64658063	-0.14798306	-0.059374302	1.0363341	-0.0089995728	-0.15544583	1.0557793	0.19539919	-0.15976436	1.0607555	-0.19594359	-0.019851982	0.87609155	-0.008792676	-0.046963692	0.99445038	-0.12385242	0.31350729	0.51038629	0.12074446	0.28078867	0.51740015	0.22359358	0.12261585	0.62382935	0.16910927	0.29815182	0.11195148	0.11079354	0.27750549	0.10102702	0.20316522	0.28716824	0.36467938	0.23822499	0.19661003	0.061751114	0.15084279
11467	114.66	0.43420435	0.06618222	0.14518411	-0.079133698	0.63412628	0.11618745	-0.1581698	0.64225952	0.16349127	-0.29220718	0.58117053	0.012461884	-0.19935904	0.63433514	-0.17853169	-0.10393528	0.64697729	-0.14785394	-0.057230709	1.035843	-0.0089338169	-0.1531727	1.0556815	0.19548964	-0.15758936	1.0606919	-0.19580241	-0.018500137	0.87539545	-0.008808466	-0.045116524	0.99390857	-0.12382199	0.31309787	0.51041031	0.1206933	0.28044626	0.51743335	0.22355347	0.12234087	0.62390454	0.16918912	0.2981004	0.11193586	0.11078787	0.27745517	0.10102633	0.20314014	0.28687659	0.36472934	0.23819618	0.1966012	0.061740028	0.15083841
11468	114.67	0.43419614	0.066207802	0.14519919	-0.079309769	0.63420209	0.11618633	-0.15821234	0.6423924	0.16347359	-0.29253503	0.58112708	0.012492346	-0.19963321	0.63440778	-0.17826979	-0.10401311	0.64736499	-0.14773369	-0.054884331	1.0352753	-0.008849678	-0.15067307	1.0555685	0.19559439	-0.15519286	1.0606127	-0.1956416	-0.017029179	0.87461011	-0.0088038149	-0.043091614	0.9932915	-0.12377078	0.31267178	0.51043546	0.12067382	0.28008347	0.51745972	0.22354239	0.12205035	0.62397626	0.1692899	0.29805331	0.11192331	0.11078439	0.2774061	0.10102381	0.20313219	0.28657214	0.36477148	0.23818137	0.19659299	0.061728096	0.1508329
11469	114.68	0.43418698	0.066233826	0.1452074	-0.079486824	0.63426636	0.11618821	-0.15825098	0.64251959	0.16344786	-0.29287042	0.58108447	0.012516139	-0.19991907	0.63447626	-0.17797285	-0.10414647	0.64771362	-0.14763002	-0.052320278	1.034621	-0.0087441788	-0.14793141	1.0554376	0.19571518	-0.15256419	1.06053	-0.1954608	-0.015439686	0.87372363	-0.0087751589	-0.040876995	0.99258673	-0.12369533	0.3122291	0.51046014	0.1206881	0.27969934	0.51747809	0.22356055	0.12174583	0.62404608	0.16941052	0.29800888	0.11191354	0.11078495	0.27735788	0.10101929	0.20313898	0.28625406	0.3648056	0.23818375	0.19658516	0.061715591	0.15082747
11470	114.69	0.43417633	0.066260841	0.14520293	-0.079669678	0.63432056	0.11619293	-0.15829265	0.64263812	0.16342255	-0.2932132	0.58104254	0.012533292	-0.20021776	0.63454724	-0.17765721	-0.10433163	0.64800488	-0.14754726	-0.049523876	1.0338704	-0.0086149206	-0.14493448	1.0552847	0.19585336	-0.1496908	1.0604514	-0.19526155	-0.013734522	0.87272192	-0.0087210493	-0.038462002	0.99178003	-0.1235947	0.3117731	0.51048349	0.12073704	0.27929422	0.51748883	0.22360823	0.1214285	0.62411548	0.16955031	0.2979646	0.11190598	0.11079123	0.27730945	0.10101265	0.20315686	0.28592194	0.364832	0.23820511	0.19657751	0.061703205	0.15082336
11471	114.7	0.43416354	0.066289497	0.14518134	-0.079862488	0.63436761	0.11619733	-0.15834441	0.64274609	0.16340482	-0.29356317	0.58100116	0.012544844	-0.20052899	0.63462964	-0.17734747	-0.10455043	0.64823395	-0.14748669	-0.046482182	1.0330109	-0.0084610891	-0.14166992	1.0551022	0.19600964	-0.14655696	1.0603771	-0.19504657	-0.011916956	0.87159113	-0.0086415339	-0.035838009	0.99085638	-0.12347019	0.31130893	0.51050574	0.12082015	0.27886935	0.51749231	0.22368552	0.12109904	0.62418518	0.16970958	0.29791769	0.11190008	0.11080448	0.27725955	0.1010038	0.20318182	0.28557565	0.36485056	0.23824463	0.19656992	0.061691551	0.15082181
11472	114.71	0.43414819	0.066320351	0.14513974	-0.080068352	0.63441058	0.11619925	-0.15841185	0.64284222	0.16340045	-0.29391995	0.58096112	0.012552726	-0.20085048	0.6347312	-0.17706499	-0.10478226	0.64840411	-0.14744647	-0.043184258	1.0320293	-0.0082830448	-0.13812521	1.0548801	0.19618459	-0.14314604	1.0603013	-0.19481865	-0.0099882259	0.87032043	-0.0085372105	-0.032998142	0.98980176	-0.12332389	0.3108414	0.51052762	0.12093526	0.27842609	0.5174884	0.22379106	0.12075774	0.62425635	0.16988913	0.29786621	0.11189548	0.11082533	0.27720679	0.10099294	0.20321016	0.28521591	0.3648606	0.2382998	0.19656229	0.061680836	0.1508233
11473	114.72	0.43413007	0.066353928	0.14507712	-0.080288795	0.63444965	0.11620186	-0.15849805	0.64292725	0.16341328	-0.29428366	0.58092316	0.012559917	-0.20117735	0.6348526	-0.17681462	-0.1050154	0.64852032	-0.14742233	-0.039621277	1.0309125	-0.008081604	-0.13428708	1.0546064	0.19637894	-0.13944221	1.060213	-0.19458122	-0.007946425	0.86890161	-0.0084092913	-0.029935909	0.98860425	-0.12315722	0.31037296	0.51054956	0.12107839	0.27796545	0.51747729	0.22392171	0.12040463	0.62432922	0.17008942	0.29780951	0.1118922	0.11085356	0.27715012	0.10098073	0.20323903	0.28484448	0.3648613	0.23836769	0.1965545	0.061671066	0.15082799
11474	114.73	0.43410925	0.066390816	0.14499524	-0.08052346	0.63448346	0.11621182	-0.15860291	0.64300305	0.16344438	-0.29465494	0.58088873	0.012570074	-0.20150343	0.63498926	-0.17658705	-0.1052492	0.64858716	-0.14740926	-0.035786865	1.0296481	-0.0078583436	-0.13014162	1.0542677	0.19659314	-0.13543114	1.0600961	-0.1943385	-0.0057867513	0.86732861	-0.0082603111	-0.026643734	0.98725531	-0.12297044	0.30990302	0.51057159	0.12124431	0.27748883	0.51745929	0.22407314	0.12004001	0.62440259	0.17030922	0.29774844	0.11189043	0.11088824	0.27708932	0.10096828	0.20326698	0.28446411	0.36485229	0.23844545	0.19654643	0.061662361	0.15083566
11475	114.74	0.43408585	0.066431839	0.14489751	-0.080769638	0.63451007	0.1162333	-0.15872337	0.64307214	0.16349121	-0.29503354	0.58085968	0.012586335	-0.20182291	0.63513574	-0.17637195	-0.10549275	0.6486073	-0.14740337	-0.031676386	1.028223	-0.0076165771	-0.12567455	1.0538491	0.19682684	-0.13109996	1.0599312	-0.19409395	-0.0035025995	0.86559546	-0.0080940771	-0.02311273	0.98574823	-0.12276334	0.30943033	0.51059378	0.12142704	0.27699771	0.51743542	0.22424062	0.11966434	0.62447345	0.17054442	0.29768466	0.11189064	0.11092808	0.27702493	0.10095686	0.20329372	0.28407837	0.36483469	0.23853116	0.19653792	0.061654934	0.15084575
